Coordinates
version=1
nRows=65
nColumns=12
inDegrees=yes

Units are S.I. units (second, meters, Newtons, ...)
Angles are in degrees

endheader
time	SC_y	SC_z	SC_x	AC_y	AC_z	AC_x	GH_y	GH_z	GH_yy	EL_x	PS_y
       0.0              -13.94          34.55          80.46          50.86         -8.503         -18.49          171.4          79.91          130.2          23.52          95.31
  0.004391              -13.94          34.55          80.46          50.86         -8.503         -18.49          171.4          79.91          130.2          23.52           95.3
  0.008783              -13.94          34.55          80.46          50.86         -8.503         -18.48          171.4           79.9          130.2          23.52          95.28
   0.01317              -13.94          34.55          80.46          50.86         -8.504         -18.48          171.4           79.9          130.1          23.53          95.27
   0.01757              -13.94          34.54          80.45          50.86         -8.504         -18.47          171.4          79.89          130.1          23.53          95.26
   0.02196              -13.95          34.54          80.45          50.86         -8.504         -18.47          171.4          79.89          130.1          23.53          95.24
   0.02635              -13.95          34.54          80.45          50.86         -8.505         -18.46          171.4          79.88          130.0          23.54          95.23
   0.03074              -13.95          34.53          80.44          50.87         -8.505         -18.45          171.4          79.87          130.0          23.54          95.21
   0.03513              -13.95          34.53          80.44          50.87         -8.505         -18.44          171.4          79.87          129.9          23.54          95.19
   0.03952              -13.96          34.52          80.44          50.87         -8.506         -18.44          171.4          79.86          129.9          23.55          95.17
   0.04391              -13.96          34.52          80.43          50.87         -8.506         -18.43          171.4          79.85          129.8          23.55          95.15
   0.04831              -13.96          34.51          80.43          50.87         -8.507         -18.42          171.4          79.84          129.8          23.56          95.13
    0.0527              -13.97          34.51          80.42          50.87         -8.507         -18.41          171.4          79.83          129.7          23.56           95.1
   0.05709              -13.97           34.5          80.42          50.88         -8.508         -18.39          171.3          79.82          129.6          23.57          95.08
   0.06148              -13.98          34.49          80.41          50.88         -8.509         -18.38          171.3          79.81          129.6          23.58          95.05
   0.06587              -13.98          34.49          80.41          50.88         -8.509         -18.37          171.3           79.8          129.5          23.58          95.02
   0.07026              -13.99          34.48           80.4          50.88          -8.51         -18.35          171.3          79.78          129.4          23.59          94.99
   0.07465              -13.99          34.47          80.39          50.89         -8.511         -18.34          171.3          79.77          129.3           23.6          94.95
   0.07905               -14.0          34.46          80.38          50.89         -8.512         -18.32          171.3          79.75          129.2          23.61          94.91
   0.08344               -14.0          34.45          80.37          50.89         -8.513          -18.3          171.3          79.73          129.1          23.62          94.87
   0.08783              -14.01          34.44          80.36           50.9         -8.514         -18.28          171.3          79.72          129.0          23.63          94.82
   0.09222              -14.02          34.43          80.35           50.9         -8.515         -18.26          171.3          79.69          128.9          23.64          94.77
   0.09661              -14.03          34.41          80.34          50.91         -8.517         -18.23          171.2          79.67          128.7          23.65          94.71
     0.101              -14.04           34.4          80.33          50.91         -8.518         -18.21          171.2          79.64          128.6          23.67          94.64
    0.1054              -14.05          34.38          80.32          50.92          -8.52         -18.18          171.2          79.61          128.4          23.68          94.57
    0.1098              -14.06          34.36           80.3          50.93         -8.522         -18.14          171.2          79.58          128.2           23.7          94.49
    0.1142              -14.07          34.34          80.28          50.93         -8.524          -18.1          171.2          79.55          128.0          23.72           94.4
    0.1186              -14.09          34.31          80.26          50.94         -8.526         -18.06          171.1          79.51          127.7          23.75           94.3
     0.123              -14.11          34.29          80.24          50.95         -8.529         -18.01          171.1          79.46          127.4          23.77          94.19
    0.1274              -14.13          34.26          80.21          50.96         -8.532         -17.96          171.1          79.41          127.1           23.8          94.06
    0.1317              -14.15          34.22          80.18          50.97         -8.535         -17.89          171.0          79.35          126.7          23.83          93.91
    0.1361              -14.17          34.18          80.15          50.99         -8.539         -17.82          171.0          79.28          126.3          23.87          93.74
    0.1405               -14.2          34.13          80.11          51.01         -8.543         -17.73          170.9           79.2          125.8          23.92          93.55
    0.1449              -14.24          34.08          80.06          51.02         -8.549         -17.64          170.9          79.11          125.3          23.97          93.32
    0.1493              -14.28          34.02          80.01          51.05         -8.555         -17.52          170.8           79.0          124.6          24.03          93.06
    0.1537              -14.33          33.94          79.95          51.07         -8.562         -17.39          170.7          78.87          123.8           24.1          92.75
    0.1581              -14.38          33.85          79.87          51.11         -8.571         -17.23          170.6          78.72          122.9          24.18          92.38
    0.1625              -14.45          33.75          79.78          51.14         -8.581         -17.03          170.5          78.54          121.8          24.28          91.93
    0.1669              -14.53          33.62          79.67          51.19         -8.593          -16.8          170.3          78.32          120.4          24.41          91.39
    0.1713              -14.63          33.46          79.54          51.24         -8.609         -16.52          170.2          78.05          118.8          24.56          90.73
    0.1757              -14.76          33.27          79.38          51.31         -8.628         -16.17          170.0          77.72          116.8          24.74          89.92
      0.18              -14.91          33.02          79.17           51.4         -8.651         -15.73          169.7          77.31          114.3          24.97          88.91
    0.1844              -15.11          32.72          78.91          51.51         -8.681         -15.18          169.3          76.79          111.1          25.26          87.64
    0.1888              -15.36          32.33          78.58          51.64         -8.718         -14.48          168.9          76.13          107.0          25.63          86.02
    0.1932              -15.67          31.84          78.17          51.82         -8.766         -13.58          168.3          75.28          101.9           26.1          83.94
    0.1976              -16.08           31.2          77.63          52.04         -8.828         -12.43          167.6           74.2          95.23           26.7          81.28
     0.202               -16.6          30.39          76.94          52.33         -8.907         -10.97          166.7          72.81          86.75          27.48          77.88
    0.2064              -17.25          29.36          76.08          52.69         -9.006         -9.118          165.5          71.07          76.09          28.45           73.6
    0.2108              -18.05          28.12          75.02          53.13         -9.127         -6.868          164.1          68.94          63.09          29.63          68.39
    0.2152              -18.97          26.67           73.8          53.65         -9.267         -4.259          162.5          66.48          48.03           31.0          62.36
    0.2196              -19.97          25.11          72.48           54.2         -9.419         -1.435          160.7          63.82          31.73          32.49          55.82
     0.224              -20.97          23.55          71.16          54.75          -9.57           1.39          159.0          61.15          15.42          33.97          49.28
    0.2284              -21.89           22.1          69.94          55.26          -9.71          3.999          157.3          58.69         0.3592          35.35          43.24
    0.2327              -22.68          20.86          68.88           55.7         -9.831          6.249          155.9          56.57         -12.63          36.53          38.03
    0.2371              -23.34          19.83          68.02          56.07          -9.93          8.096          154.8          54.82          -23.3           37.5          33.75
    0.2415              -23.86          19.02          67.33          56.35         -10.01          9.565          153.8          53.44         -31.78          38.27          30.35
    0.2459              -24.26          18.38          66.79          56.58         -10.07          10.71          153.1          52.35         -38.41          38.88          27.69
    0.2503              -24.58          17.89          66.37          56.75         -10.12          11.61          152.6          51.51         -43.59          39.35          25.62
    0.2547              -24.83           17.5          66.04          56.89         -10.16          12.31          152.1          50.85         -47.63          39.72           24.0
    0.2591              -25.02          17.19          65.79           57.0         -10.19          12.86          151.8          50.33         -50.81          40.01          22.72
    0.2635              -25.18          16.95          65.58          57.09         -10.21           13.3          151.5          49.92         -53.33          40.24          21.71
    0.2679               -25.3          16.76          65.42          57.15         -10.23          13.65          151.3          49.58         -55.35          40.42           20.9
    0.2723               -25.4           16.6          65.28          57.21         -10.24          13.93          151.1          49.32         -56.99          40.57          20.24
    0.2767              -25.48          16.47          65.18          57.26         -10.26          14.17          151.0           49.1         -58.34          40.69           19.7
    0.2811              -25.55          16.37          65.09          57.29         -10.27          14.36          150.8          48.92         -59.45          40.79          19.26
